# xmcd
#
# Track frame offsets:
#	150
#	24116
#	38162
#	53728
#	69436
#	82201
#	94716
#	118349
#	130669
#	145775
#	181683
#
# Disc length: 2707 seconds
#
# Revision: 1
# Processed by: cddbd v1.5.2PL0 Copyright (c) Steve Scherf et al.
# Submitted via: audiograbber 1.83.01
#
DISCID=8b0a910b
DTITLE=The Scientists - Sedition
DYEAR=2007
DGENRE=Alternative Rock
TTITLE0=Swampland
TTITLE1=Burnout
TTITLE2=Solid Gold Hell
TTITLE3=Nitro
TTITLE4=Blood Red River
TTITLE5=Set It On Fire
TTITLE6=Rev Head
TTITLE7=When Fate Deals Its Mortal Blow
TTITLE8=Leadfoot
TTITLE9=Backwards Man
TTITLE10=We Had Love
EXTD=Label: ATP Recordings
EXTT0=
EXTT1=
EXTT2=
EXTT3=
EXTT4=
EXTT5=
EXTT6=
EXTT7=
EXTT8=
EXTT9=
EXTT10=
PLAYORDER=
